<svg xmlns="http://www.w3.org/2000/svg" viewBox="0 0 100 100">
  <circle cx="50" cy="55" r="32" fill="#FF8C42"/>
  <ellipse cx="50" cy="72" rx="22" ry="16" fill="#FFB380"/>
  <polygon points="28,28 38,48 18,48" fill="#FF8C42"/>
  <polygon points="72,28 62,48 82,48" fill="#FF8C42"/>
  <circle cx="40" cy="52" r="5" fill="#333"/>
  <circle cx="60" cy="52" r="5" fill="#333"/>
  <circle cx="41" cy="51" r="2" fill="white"/>
  <circle cx="61" cy="51" r="2" fill="white"/>
  <ellipse cx="50" cy="61" rx="4" ry="3" fill="#FF6B9D"/>
  <path d="M46 64 Q50 67 54 64" stroke="#333" stroke-width="1.5" fill="none"/>
  <line x1="30" y1="58" x2="10" y2="55" stroke="#333" stroke-width="1.5"/>
  <line x1="30" y1="61" x2="10" y2="61" stroke="#333" stroke-width="1.5"/>
  <line x1="30" y1="64" x2="10" y2="67" stroke="#333" stroke-width="1.5"/>
  <line x1="70" y1="58" x2="90" y2="55" stroke="#333" stroke-width="1.5"/>
  <line x1="70" y1="61" x2="90" y2="61" stroke="#333" stroke-width="1.5"/>
  <line x1="70" y1="64" x2="90" y2="67" stroke="#333" stroke-width="1.5"/>
</svg>
